<?xml version="1.0" standalone="no"?>
<!DOCTYPE svg PUBLIC "-//W3C//DTD SVG 20010904//EN"
 "http://www.w3.org/TR/2001/REC-SVG-20010904/DTD/svg10.dtd">
<svg version="1.0" xmlns="http://www.w3.org/2000/svg"
 width="560.000000pt" height="560.000000pt" viewBox="0 0 560.000000 560.000000"
 preserveAspectRatio="xMidYMid meet">
<metadata>
Created by potrace 1.14, written by Peter Selinger 2001-2017
</metadata>
<g transform="translate(0.000000,560.000000) scale(0.100000,-0.100000)"
fill="#000000" stroke="none">
<path d="M2804 5102 c-7 -4 -15 -26 -19 -49 -4 -24 -11 -43 -16 -43 -6 0 -8
-4 -5 -9 3 -5 -3 -35 -15 -67 -55 -158 -101 -300 -102 -311 0 -7 -3 -13 -7
-13 -4 0 -7 -6 -8 -12 0 -7 -3 -23 -6 -35 -3 -13 -8 -31 -10 -41 -2 -9 -18
-58 -35 -107 -17 -50 -33 -97 -35 -105 -2 -8 -10 -36 -16 -62 -7 -27 -17 -48
-23 -48 -6 0 -8 -3 -4 -6 3 -3 -3 -30 -14 -59 -11 -30 -22 -62 -24 -72 -21
-91 -40 -153 -47 -153 -4 0 -8 -8 -8 -18 0 -10 -3 -22 -7 -26 -4 -3 -8 -12
-10 -19 -4 -19 -43 -139 -53 -162 -14 -34 -45 -134 -53 -170 -2 -5 -5 -14 -8
-20 -4 -5 -5 -20 -4 -32 1 -13 -1 -23 -5 -23 -3 0 -11 -20 -18 -44 -8 -31 -18
-47 -33 -51 -25 -8 -1792 -9 -1827 -1 -33 7 -25 -25 11 -42 15 -7 27 -18 27
-23 0 -6 5 -7 10 -4 6 3 10 3 10 -2 0 -4 17 -19 38 -33 42 -28 47 -32 82 -61
14 -11 37 -28 53 -37 15 -9 27 -20 27 -24 0 -4 4 -8 10 -8 9 0 71 -43 123 -86
9 -8 22 -14 27 -14 6 0 10 -4 10 -10 0 -5 7 -10 15 -10 8 0 15 -3 15 -7 0 -5
17 -19 38 -33 39 -26 220 -158 261 -190 13 -11 29 -16 34 -13 6 3 7 1 3 -5 -4
-7 -1 -12 9 -12 8 0 18 -7 21 -15 4 -8 10 -15 15 -15 6 0 15 -5 22 -10 49 -41
104 -80 113 -80 7 0 15 -7 18 -16 3 -8 10 -12 16 -9 5 3 10 2 10 -2 0 -10 95
-83 108 -83 4 0 14 -9 22 -20 8 -11 19 -20 24 -20 5 0 15 -8 23 -17 10 -12 12
-13 8 -3 -3 8 2 5 11 -8 9 -12 21 -22 26 -22 6 0 27 -13 48 -30 21 -16 43 -30
50 -30 6 0 8 -4 5 -10 -3 -5 -1 -10 4 -10 6 0 19 -8 29 -17 10 -10 32 -26 48
-35 47 -27 55 -47 38 -93 -9 -22 -16 -46 -16 -52 -1 -7 -5 -13 -10 -13 -4 0
-8 -8 -8 -18 0 -21 -27 -108 -41 -135 -5 -10 -7 -22 -4 -27 4 -6 1 -10 -6 -10
-7 0 -10 -3 -6 -6 3 -4 0 -19 -8 -35 -13 -24 -37 -102 -50 -161 -2 -9 -11 -30
-19 -47 -9 -17 -16 -33 -16 -36 0 -3 0 -6 -1 -7 -1 -4 -5 -20 -28 -103 -10
-38 -24 -83 -31 -100 -8 -16 -14 -32 -15 -35 0 -3 -6 -21 -13 -41 -7 -20 -14
-45 -16 -56 -3 -11 -16 -50 -31 -86 -14 -36 -28 -74 -29 -84 -2 -10 -10 -38
-17 -63 -7 -25 -14 -51 -15 -58 -1 -8 -6 -21 -10 -30 -4 -9 -8 -19 -9 -22 -1
-3 -7 -18 -13 -33 -7 -16 -12 -34 -12 -41 0 -6 -4 -16 -9 -21 -6 -6 -12 -21
-14 -35 -3 -14 -12 -45 -21 -70 -9 -25 -16 -53 -16 -62 0 -10 -5 -18 -11 -18
-5 0 -8 -4 -4 -10 3 -5 -1 -25 -9 -45 -8 -19 -16 -37 -16 -40 0 -3 -7 -19 -14
-37 -23 -57 -27 -76 -16 -83 5 -3 10 -1 10 5 0 6 10 15 23 20 27 12 56 31 75
47 7 7 18 13 23 13 5 0 9 6 9 13 0 6 18 21 40 31 22 11 40 23 40 28 0 4 7 8
15 8 9 0 18 7 21 15 4 8 13 15 20 15 8 0 17 7 20 15 4 8 13 15 20 15 8 0 17 7
20 15 4 8 13 15 20 15 8 0 17 7 20 15 4 8 10 15 15 15 14 0 109 71 109 81 0 5
6 9 13 9 7 0 23 9 35 20 12 12 22 18 22 15 0 -4 6 0 14 7 7 7 24 20 36 28 12
8 36 27 54 42 17 15 34 28 38 28 4 0 13 6 20 13 7 7 30 23 51 36 22 13 50 34
62 47 13 13 28 24 33 24 4 0 18 9 30 20 12 12 22 18 22 15 0 -4 7 1 17 10 9 9
34 28 55 41 21 14 47 32 58 42 31 28 49 42 54 42 6 0 98 68 106 79 3 3 17 12
32 20 14 7 40 26 58 42 17 16 33 29 36 29 5 0 84 57 111 80 34 29 57 28 103
-4 25 -17 46 -34 48 -38 2 -4 21 -18 43 -30 21 -12 39 -25 39 -30 0 -4 7 -8
15 -8 8 0 15 -4 15 -10 0 -5 4 -10 10 -10 5 0 20 -9 32 -20 13 -10 27 -19 31
-19 5 0 16 -8 25 -18 9 -10 40 -34 67 -52 28 -19 52 -37 55 -40 3 -4 12 -10
21 -16 78 -49 253 -176 274 -199 6 -6 17 -12 25 -14 8 -2 17 -7 20 -11 3 -4
21 -18 40 -31 19 -13 37 -27 40 -30 12 -13 70 -50 79 -50 5 0 11 -7 15 -15 3
-8 12 -15 20 -15 8 0 16 -4 18 -10 2 -5 37 -34 78 -64 41 -31 80 -60 87 -66 7
-5 16 -10 21 -10 5 0 23 -13 40 -30 18 -16 36 -30 42 -30 5 0 10 -4 10 -10 0
-5 7 -10 15 -10 8 0 15 -4 15 -10 0 -5 7 -10 15 -10 8 0 15 -4 15 -10 0 -5 5
-10 11 -10 11 0 98 -66 111 -85 4 -5 8 -6 8 -2 0 11 50 -40 50 -52 0 -5 4 -12
8 -15 5 -3 7 9 5 27 -7 60 -13 77 -28 77 -11 0 -15 12 -15 43 0 55 -9 87 -25
87 -8 0 -14 21 -18 57 -4 35 -12 62 -22 69 -8 6 -15 25 -15 42 0 40 -9 62 -26
62 -10 0 -14 14 -16 48 -2 72 -2 73 -20 86 -11 8 -18 29 -19 59 -2 29 -10 55
-21 67 -10 10 -18 32 -18 49 0 39 -9 61 -26 61 -10 0 -14 12 -14 39 0 57 -11
101 -25 101 -8 0 -14 22 -18 57 -4 35 -12 62 -22 69 -8 6 -15 24 -15 40 0 44
-11 74 -26 74 -9 0 -14 13 -15 38 -1 54 -6 75 -22 87 -8 5 -17 30 -20 55 -9
69 -13 81 -24 88 -6 4 -13 27 -16 52 -3 25 -6 46 -6 48 -1 1 -8 2 -16 2 -11 0
-15 11 -16 38 -1 55 -6 75 -23 88 -26 18 -21 101 7 125 12 10 27 18 34 19 7 0
16 6 20 13 4 6 34 29 66 50 31 20 57 42 57 47 0 6 5 10 10 10 10 0 116 69 153
100 10 8 27 22 37 30 10 8 28 22 40 30 12 8 28 20 34 25 6 6 31 23 55 39 25
16 50 33 55 38 32 26 146 108 151 108 3 0 13 8 23 18 10 9 29 24 41 32 13 8
32 23 43 33 12 9 24 17 28 17 6 0 23 13 68 50 6 6 12 8 12 5 0 -3 12 6 28 20
15 14 35 28 45 31 9 3 17 8 17 12 0 4 18 18 40 32 22 14 40 28 40 32 0 5 7 8
15 8 9 0 18 7 21 15 4 8 12 15 19 15 7 0 15 7 19 15 3 8 10 15 17 15 6 0 28
14 49 30 21 17 43 30 49 30 6 0 11 6 11 13 0 7 16 19 35 27 19 8 35 19 35 26
0 6 11 15 25 18 14 4 25 11 25 16 0 6 5 10 10 10 6 0 22 7 36 17 40 26 11 33
-106 25 -87 -6 -1001 -7 -1300 -2 -47 1 -152 1 -235 0 -82 0 -159 -1 -171 0
-27 0 -74 44 -74 68 0 41 -13 82 -26 82 -9 0 -14 13 -15 38 -1 55 -6 75 -22
87 -8 6 -17 31 -19 55 -6 57 -10 72 -25 85 -6 5 -14 30 -17 55 -3 25 -5 46 -5
48 -1 1 -8 2 -16 2 -10 0 -15 11 -16 33 0 17 -3 41 -5 52 -3 11 -6 26 -6 33
-1 6 -7 12 -15 12 -8 0 -13 12 -13 33 0 42 -18 107 -30 107 -6 0 -10 12 -10
28 0 41 -11 72 -25 72 -8 0 -15 23 -19 63 -3 34 -12 67 -19 72 -8 6 -17 33
-20 60 -4 28 -13 55 -21 60 -11 8 -22 54 -25 108 -1 4 -7 7 -15 7 -9 0 -15 17
-18 56 -3 37 -11 61 -21 69 -11 8 -17 27 -17 54 0 30 -5 44 -20 53 -15 10 -20
24 -20 60 0 34 -6 54 -19 67 -12 12 -20 39 -24 76 -6 60 -15 79 -33 67z"/>
</g>
</svg>
